<svg width="50" height="73" viewBox="0 0 50 73" fill="none" xmlns="http://www.w3.org/2000/svg">
<path d="M49.76 26.376V28.608C49.76 29.376 49.736 30.24 49.688 31.2C49.688 32.16 49.616 33.048 49.472 33.864C49.328 34.728 49.16 35.568 48.968 36.384C48.776 37.152 48.536 37.92 48.248 38.688C48.056 39.216 47.888 39.696 47.744 40.128C47.6 40.512 47.408 40.824 47.168 41.064C47.168 41.112 47.144 41.136 47.096 41.136C47.096 41.136 47.096 41.16 47.096 41.208C46.76 41.832 46.448 42.336 46.16 42.72C45.968 43.056 45.728 43.392 45.44 43.728C45.152 44.016 44.864 44.304 44.576 44.592C44.336 44.832 44.072 45.072 43.784 45.312C43.544 45.552 43.304 45.792 43.064 46.032C43.064 46.032 43.04 46.032 42.992 46.032C42.992 46.032 42.992 46.056 42.992 46.104C42.752 46.344 42.512 46.704 42.272 47.184C42.224 47.232 42.2 47.28 42.2 47.328C42.2 47.376 42.176 47.424 42.128 47.472L41.912 47.832C41.864 47.88 41.816 47.952 41.768 48.048C41.768 48.096 41.744 48.12 41.696 48.12C41.504 48.456 41.264 48.768 40.976 49.056C40.736 49.248 40.448 49.488 40.112 49.776C39.824 50.016 39.512 50.184 39.176 50.28H38.816C38.768 50.472 38.696 50.688 38.6 50.928C38.552 51.12 38.48 51.312 38.384 51.504C38.336 51.552 38.288 51.624 38.24 51.72C38.24 51.816 38.192 51.912 38.096 52.008C38.048 52.056 38 52.104 37.952 52.152C37.904 52.2 37.88 52.272 37.88 52.368C37.832 52.896 37.784 53.688 37.736 54.744C37.736 55.8 37.712 56.904 37.664 58.056C37.664 59.256 37.664 60.384 37.664 61.44C37.664 62.496 37.64 63.288 37.592 63.816C37.592 63.864 37.496 63.792 37.304 63.6C37.256 63.456 37.208 63.312 37.16 63.168C37.16 63.024 37.112 62.88 37.016 62.736L36.296 59.496C36.056 58.776 35.936 57.888 35.936 56.832C35.936 55.776 35.936 54.72 35.936 53.664C35.984 52.656 35.912 51.792 35.72 51.072C35.72 51.072 35.696 51.072 35.648 51.072C35.648 51.12 35.648 51.168 35.648 51.216C35.648 51.264 35.624 51.264 35.576 51.216C35.528 51.168 35.48 51.144 35.432 51.144C35.336 51.096 35.24 51.024 35.144 50.928C35.096 50.88 35.024 50.832 34.928 50.784C34.88 50.736 34.808 50.688 34.712 50.64C34.52 50.832 34.376 51.024 34.28 51.216C34.184 51.312 34.136 51.384 34.136 51.432L33.704 51.936C33.176 52.608 32.768 53.352 32.48 54.168L32.048 55.464C31.856 56.04 31.64 56.64 31.4 57.264C31.16 57.936 30.8 58.536 30.32 59.064C30.032 59.352 29.912 59.448 29.96 59.352C30.056 59.304 30.104 59.256 30.104 59.208L29.816 59.496C29.624 59.592 29.528 59.664 29.528 59.712C29.528 59.808 29.408 59.88 29.168 59.928C29.12 59.928 29.024 59.904 28.88 59.856C28.784 59.808 28.688 59.808 28.592 59.856C28.544 59.856 28.496 59.856 28.448 59.856C28.4 59.904 28.328 59.928 28.232 59.928L27.728 60.288C27.632 60.336 27.488 60.432 27.296 60.576C27.152 60.72 27.008 60.72 26.864 60.576C26.816 60.528 26.768 60.456 26.72 60.36C26.72 60.264 26.672 60.192 26.576 60.144C26.528 60.096 26.48 60.096 26.432 60.144C26.384 60.24 26.336 60.264 26.288 60.216C26.24 60.168 26.192 60.12 26.144 60.072C26.096 60.024 26.048 59.976 26 59.928C25.808 59.832 25.616 59.688 25.424 59.496C25.232 59.304 25.04 59.136 24.848 58.992C24.656 58.8 24.488 58.656 24.344 58.56C24.248 58.8 24.2 59.04 24.2 59.28C24.2 59.568 24.152 59.832 24.056 60.072C24.008 60.264 23.936 60.432 23.84 60.576C23.792 60.72 23.768 60.864 23.768 61.008C23.72 61.536 23.696 62.304 23.696 63.312C23.696 64.368 23.696 65.472 23.696 66.624C23.696 67.776 23.672 68.856 23.624 69.864C23.576 70.92 23.504 71.712 23.408 72.24C23.36 72.672 23.312 72.744 23.264 72.456C23.264 72.168 23.24 71.688 23.192 71.016C23.192 70.344 23.168 69.648 23.12 68.928C23.12 68.256 23.12 67.704 23.12 67.272C23.072 66.552 23.024 65.64 22.976 64.536C22.976 63.432 22.952 62.328 22.904 61.224C22.904 60.168 22.88 59.28 22.832 58.56C22.64 58.704 22.472 58.872 22.328 59.064C22.04 59.4 21.776 59.736 21.536 60.072C21.296 60.408 20.984 60.696 20.6 60.936C20.552 61.32 20.504 61.704 20.456 62.088C20.408 62.472 20.36 62.856 20.312 63.24C20.264 63.96 20.168 64.656 20.024 65.328C19.928 66 19.832 66.672 19.736 67.344C19.688 67.632 19.64 67.896 19.592 68.136C19.592 68.424 19.544 68.688 19.448 68.928C19.4 69.12 19.352 69.408 19.304 69.792C19.256 70.224 19.208 70.344 19.16 70.152C19.064 69.048 19.016 67.848 19.016 66.552C19.016 65.304 18.968 64.152 18.872 63.096C18.872 63.048 18.824 63.024 18.728 63.024C18.632 63.024 18.584 63.048 18.584 63.096C18.488 64.152 18.44 65.352 18.44 66.696C18.44 68.04 18.392 69.264 18.296 70.368C18.296 70.56 18.248 70.488 18.152 70.152C18.104 69.816 18.056 69.576 18.008 69.432C17.864 68.904 17.744 68.304 17.648 67.632C17.552 66.96 17.456 66.408 17.36 65.976C17.264 65.112 17.168 64.248 17.072 63.384C17.024 62.568 16.928 61.752 16.784 60.936L16.352 60.504C16.208 60.264 16.064 60.024 15.92 59.784C15.824 59.592 15.728 59.4 15.632 59.208C15.248 58.344 14.888 57.48 14.552 56.616C14.264 55.752 13.928 54.912 13.544 54.096L12.464 51.864C12.416 51.768 12.392 51.696 12.392 51.648C12.392 51.6 12.368 51.552 12.32 51.504C12.224 51.696 12.176 51.912 12.176 52.152C12.224 52.44 12.176 52.704 12.032 52.944C11.984 52.992 11.936 52.92 11.888 52.728C11.84 52.584 11.792 52.488 11.744 52.44C11.696 52.152 11.624 51.936 11.528 51.792C11.528 51.888 11.48 51.984 11.384 52.08C11.336 52.176 11.24 52.296 11.096 52.44C10.952 52.584 10.808 52.728 10.664 52.872C10.568 53.016 10.448 53.136 10.304 53.232C10.064 53.568 9.872 53.952 9.728 54.384C9.632 54.864 9.536 55.296 9.44 55.68C9.392 55.872 9.344 56.064 9.296 56.256C9.296 56.448 9.248 56.64 9.152 56.832C9.104 57.024 9.056 57.312 9.008 57.696C8.96 58.08 8.912 58.176 8.864 57.984C8.336 57.456 8.096 57.24 8.144 57.336C8.192 57.48 8.336 57.72 8.576 58.056C8.816 58.44 8.96 58.752 9.008 58.992C9.056 59.28 8.816 59.304 8.288 59.064C7.808 58.92 7.568 58.584 7.568 58.056C7.616 57.528 7.712 56.928 7.856 56.256C8.048 55.584 8.096 55.008 8 54.528C8 54.432 7.952 54.336 7.856 54.24C7.808 54.144 7.784 54.144 7.784 54.24C7.736 54.48 7.712 54.84 7.712 55.32C7.712 55.8 7.712 56.184 7.712 56.472C7.712 56.808 7.64 56.856 7.496 56.616C7.256 56.088 7.184 55.536 7.28 54.96C7.376 54.384 7.376 53.832 7.28 53.304C7.232 53.016 7.112 52.776 6.92 52.584C6.824 52.536 6.728 52.464 6.632 52.368C6.536 52.272 6.44 52.2 6.344 52.152C6.296 52.152 6.248 52.176 6.2 52.224C6.2 52.32 6.176 52.392 6.128 52.44C5.984 52.44 5.912 52.464 5.912 52.512C5.864 52.896 5.864 53.4 5.912 54.024C6.008 54.696 6.056 55.248 6.056 55.68C6.104 56.112 5.96 56.232 5.624 56.04C5.144 55.656 5 55.08 5.192 54.312C5.432 53.544 5.504 52.848 5.408 52.224C5.408 52.128 5.384 52.008 5.336 51.864C5.288 51.72 5.216 51.696 5.12 51.792C5.024 51.936 5 52.152 5.048 52.44C5.096 52.728 5.048 52.848 4.904 52.8C4.712 52.704 4.64 52.536 4.688 52.296C4.784 52.056 4.808 51.84 4.76 51.648L4.256 50.928C4.064 50.832 3.896 50.736 3.752 50.64C3.224 50.256 2.96 49.728 2.96 49.056V35.52C2.048 34.032 1.376 32.64 0.944 31.344C0.56 30 0.488 28.92 0.728 28.104C1.016 27.288 1.76 26.88 2.96 26.88V4.56C2.96 4.272 2.936 3.96 2.888 3.624C2.888 3.24 2.912 2.88 2.96 2.544C2.96 2.064 3.08 1.68 3.32 1.392C3.512 1.104 3.776 0.887997 4.112 0.743999C4.4 0.647997 4.64 0.599997 4.832 0.599997C5.072 0.551997 5.312 0.551997 5.552 0.599997C5.84 0.599997 6.104 0.599997 6.344 0.599997H24.344C25.112 0.599997 25.88 0.599997 26.648 0.599997C27.416 0.599997 28.184 0.647997 28.952 0.743999C34.232 1.176 38.672 2.76 42.272 5.496C42.56 5.688 42.776 5.856 42.92 6C43.064 6.096 43.184 6.192 43.28 6.288C44.144 7.008 44.984 7.896 45.8 8.952C46.376 9.576 46.856 10.296 47.24 11.112C48.152 12.792 48.824 14.688 49.256 16.8C49.256 16.848 49.256 16.872 49.256 16.872C49.304 16.872 49.328 16.896 49.328 16.944C49.376 17.136 49.424 17.352 49.472 17.592C49.52 17.784 49.544 18 49.544 18.24C49.688 18.864 49.76 19.536 49.76 20.256C49.856 22.512 49.856 24.552 49.76 26.376ZM21.248 14.856L20.816 14.424C20.288 13.896 20.072 13.656 20.168 13.704C20.264 13.752 20.432 13.92 20.672 14.208C20.96 14.496 21.056 14.736 20.96 14.928V36.096C20.96 39.6 20.552 42.168 19.736 43.8C18.968 45.432 17.912 46.32 16.568 46.464C15.272 46.608 13.856 46.248 12.32 45.384C10.784 44.472 9.272 43.248 7.784 41.712C6.296 40.176 4.952 38.544 3.752 36.816C2.6 35.088 1.736 33.456 1.16 31.92C0.584 30.336 0.44 29.088 0.728 28.176C1.064 27.216 1.952 26.784 3.392 26.88C4.832 26.928 6.968 27.72 9.8 29.256C12.68 30.744 16.4 33.168 20.96 36.528L21.536 36.96H24.56C25.184 36.96 25.784 36.936 26.36 36.888C26.984 36.792 27.608 36.648 28.232 36.456C28.616 36.312 28.976 36.096 29.312 35.808C29.36 35.808 29.384 35.808 29.384 35.808C29.384 35.76 29.408 35.736 29.456 35.736C29.552 35.64 29.648 35.52 29.744 35.376C29.84 35.232 29.936 35.088 30.032 34.944C30.32 34.464 30.536 33.96 30.68 33.432C30.872 32.856 31.016 32.328 31.112 31.848C31.112 31.8 31.112 31.752 31.112 31.704C31.16 31.608 31.184 31.536 31.184 31.488C31.28 31.2 31.328 30.912 31.328 30.624C31.376 30.288 31.424 29.976 31.472 29.688C31.472 29.16 31.472 28.584 31.472 27.96C31.52 27.288 31.544 26.616 31.544 25.944V24.864C31.544 24.384 31.52 23.928 31.472 23.496C31.472 23.016 31.472 22.536 31.472 22.056C31.472 21.912 31.448 21.672 31.4 21.336C31.4 20.952 31.4 20.592 31.4 20.256C31.352 19.728 31.256 19.248 31.112 18.816C31.016 18.336 30.848 17.88 30.608 17.448C30.608 17.448 30.56 17.352 30.464 17.16C30.416 17.064 30.32 16.944 30.176 16.8C30.176 16.752 30.128 16.68 30.032 16.584L29.6 16.152C29.264 15.864 28.928 15.72 28.592 15.72C28.256 15.72 27.896 15.768 27.512 15.864C27.128 15.912 26.72 16.008 26.288 16.152C25.856 16.248 25.424 16.32 24.992 16.368C24.8 16.416 24.584 16.464 24.344 16.512C24.152 16.512 23.96 16.488 23.768 16.44C23.432 16.344 23.096 16.2 22.76 16.008C22.424 15.768 22.112 15.552 21.824 15.36C21.584 15.12 21.392 14.952 21.248 14.856Z" fill="url(#paint0_linear_174_2)"/>
<defs>
<linearGradient id="paint0_linear_174_2" x1="26" y1="-16" x2="26" y2="69" gradientUnits="userSpaceOnUse">
<stop stop-color="white"/>
<stop offset="0.3" stop-color="#14E956"/>
<stop offset="0.75" stop-color="#042C10"/>
</linearGradient>
</defs>
</svg>
